<mxfile host="Electron" modified="2024-04-09T15:16:06.679Z" agent="Mozilla/5.0 (X11; Linux x86_64) AppleWebKit/537.36 (KHTML, like Gecko) draw.io/24.1.0 Chrome/120.0.6099.109 Electron/28.1.0 Safari/537.36" etag="Hm9ftWOqfezMcBekOMGS" version="24.1.0" type="device">
  <diagram name="Page-1" id="qzmiBFViwIrNQVzbCkoV">
    <mxGraphModel dx="1376" dy="963" grid="1" gridSize="10" guides="1" tooltips="1" connect="1" arrows="1" fold="1" page="1" pageScale="1" pageWidth="850" pageHeight="1100" math="0" shadow="0">
      <root>
        <mxCell id="0" />
        <mxCell id="1" parent="0" />
        <mxCell id="IkUtfVjGT32dqa6YhP1y-7" value="Customer&lt;div&gt;&lt;br&gt;&lt;/div&gt;" style="shape=umlActor;verticalLabelPosition=bottom;verticalAlign=top;html=1;" vertex="1" parent="1">
          <mxGeometry x="80" y="150" width="30" height="60" as="geometry" />
        </mxCell>
        <mxCell id="IkUtfVjGT32dqa6YhP1y-8" value="Enter pacak ID and click on the track button" style="ellipse;whiteSpace=wrap;html=1;" vertex="1" parent="1">
          <mxGeometry x="262.5" y="50" width="175" height="110" as="geometry" />
        </mxCell>
        <mxCell id="IkUtfVjGT32dqa6YhP1y-9" value="View the package and active delivery details and source,destination and current loations" style="ellipse;whiteSpace=wrap;html=1;" vertex="1" parent="1">
          <mxGeometry x="270" y="180" width="190" height="110" as="geometry" />
        </mxCell>
        <mxCell id="IkUtfVjGT32dqa6YhP1y-11" value="Observe the map and track the location of the package" style="ellipse;whiteSpace=wrap;html=1;" vertex="1" parent="1">
          <mxGeometry x="270" y="330" width="190" height="100" as="geometry" />
        </mxCell>
        <mxCell id="IkUtfVjGT32dqa6YhP1y-12" value="Tracker App" style="shape=umlFrame;whiteSpace=wrap;html=1;pointerEvents=0;" vertex="1" parent="1">
          <mxGeometry x="185" y="30" width="345" height="440" as="geometry" />
        </mxCell>
        <mxCell id="IkUtfVjGT32dqa6YhP1y-13" value="" style="endArrow=open;endFill=1;endSize=12;html=1;rounded=0;entryX=0.043;entryY=0.673;entryDx=0;entryDy=0;entryPerimeter=0;" edge="1" parent="1" target="IkUtfVjGT32dqa6YhP1y-8">
          <mxGeometry width="160" relative="1" as="geometry">
            <mxPoint x="110" y="160" as="sourcePoint" />
            <mxPoint x="270" y="160" as="targetPoint" />
          </mxGeometry>
        </mxCell>
        <mxCell id="IkUtfVjGT32dqa6YhP1y-18" value="" style="endArrow=open;endFill=1;endSize=12;html=1;rounded=0;" edge="1" parent="1" target="IkUtfVjGT32dqa6YhP1y-9">
          <mxGeometry width="160" relative="1" as="geometry">
            <mxPoint x="102.5" y="195" as="sourcePoint" />
            <mxPoint x="262.5" y="159" as="targetPoint" />
          </mxGeometry>
        </mxCell>
        <mxCell id="IkUtfVjGT32dqa6YhP1y-19" value="" style="endArrow=open;endFill=1;endSize=12;html=1;rounded=0;entryX=-0.011;entryY=0.59;entryDx=0;entryDy=0;entryPerimeter=0;" edge="1" parent="1" target="IkUtfVjGT32dqa6YhP1y-11">
          <mxGeometry width="160" relative="1" as="geometry">
            <mxPoint x="110" y="231" as="sourcePoint" />
            <mxPoint x="270" y="195" as="targetPoint" />
          </mxGeometry>
        </mxCell>
        <mxCell id="IkUtfVjGT32dqa6YhP1y-20" value="&lt;div&gt;Driver&lt;/div&gt;&lt;div&gt;&lt;br&gt;&lt;/div&gt;" style="shape=umlActor;verticalLabelPosition=bottom;verticalAlign=top;html=1;" vertex="1" parent="1">
          <mxGeometry x="80" y="620" width="30" height="60" as="geometry" />
        </mxCell>
        <mxCell id="IkUtfVjGT32dqa6YhP1y-21" value="Enter delivery ID and click on the submit&lt;span style=&quot;background-color: initial;&quot;&gt;&amp;nbsp;button&lt;/span&gt;" style="ellipse;whiteSpace=wrap;html=1;" vertex="1" parent="1">
          <mxGeometry x="262.5" y="520" width="175" height="110" as="geometry" />
        </mxCell>
        <mxCell id="IkUtfVjGT32dqa6YhP1y-22" value="View the delviery and package detatils with&lt;span style=&quot;background-color: initial;&quot;&gt;&amp;nbsp;source,destination and current loations&lt;/span&gt;" style="ellipse;whiteSpace=wrap;html=1;" vertex="1" parent="1">
          <mxGeometry x="270" y="650" width="190" height="110" as="geometry" />
        </mxCell>
        <mxCell id="IkUtfVjGT32dqa6YhP1y-23" value="Observe the map&amp;nbsp; track your location after every 20 seconds" style="ellipse;whiteSpace=wrap;html=1;" vertex="1" parent="1">
          <mxGeometry x="270" y="800" width="190" height="100" as="geometry" />
        </mxCell>
        <mxCell id="IkUtfVjGT32dqa6YhP1y-24" value="Tracker App" style="shape=umlFrame;whiteSpace=wrap;html=1;pointerEvents=0;" vertex="1" parent="1">
          <mxGeometry x="185" y="500" width="345" height="440" as="geometry" />
        </mxCell>
        <mxCell id="IkUtfVjGT32dqa6YhP1y-25" value="" style="endArrow=open;endFill=1;endSize=12;html=1;rounded=0;entryX=0.043;entryY=0.673;entryDx=0;entryDy=0;entryPerimeter=0;" edge="1" parent="1" target="IkUtfVjGT32dqa6YhP1y-21">
          <mxGeometry width="160" relative="1" as="geometry">
            <mxPoint x="110" y="630" as="sourcePoint" />
            <mxPoint x="270" y="630" as="targetPoint" />
          </mxGeometry>
        </mxCell>
        <mxCell id="IkUtfVjGT32dqa6YhP1y-26" value="" style="endArrow=open;endFill=1;endSize=12;html=1;rounded=0;" edge="1" parent="1" target="IkUtfVjGT32dqa6YhP1y-22">
          <mxGeometry width="160" relative="1" as="geometry">
            <mxPoint x="102.5" y="665" as="sourcePoint" />
            <mxPoint x="262.5" y="629" as="targetPoint" />
          </mxGeometry>
        </mxCell>
        <mxCell id="IkUtfVjGT32dqa6YhP1y-27" value="" style="endArrow=open;endFill=1;endSize=12;html=1;rounded=0;entryX=-0.011;entryY=0.59;entryDx=0;entryDy=0;entryPerimeter=0;" edge="1" parent="1" target="IkUtfVjGT32dqa6YhP1y-23">
          <mxGeometry width="160" relative="1" as="geometry">
            <mxPoint x="110" y="701" as="sourcePoint" />
            <mxPoint x="270" y="665" as="targetPoint" />
          </mxGeometry>
        </mxCell>
        <mxCell id="IkUtfVjGT32dqa6YhP1y-33" value="View List of packages" style="ellipse;whiteSpace=wrap;html=1;" vertex="1" parent="1">
          <mxGeometry x="1040" y="70" width="175" height="110" as="geometry" />
        </mxCell>
        <mxCell id="IkUtfVjGT32dqa6YhP1y-34" value="Create/Edit a package&amp;nbsp;" style="ellipse;whiteSpace=wrap;html=1;" vertex="1" parent="1">
          <mxGeometry x="1042.5" y="220" width="190" height="110" as="geometry" />
        </mxCell>
        <mxCell id="IkUtfVjGT32dqa6YhP1y-35" value="Delete package" style="ellipse;whiteSpace=wrap;html=1;" vertex="1" parent="1">
          <mxGeometry x="1042.5" y="370" width="190" height="100" as="geometry" />
        </mxCell>
        <mxCell id="IkUtfVjGT32dqa6YhP1y-36" value="Tracker App" style="shape=umlFrame;whiteSpace=wrap;html=1;pointerEvents=0;" vertex="1" parent="1">
          <mxGeometry x="972.5" y="30" width="345" height="910" as="geometry" />
        </mxCell>
        <mxCell id="IkUtfVjGT32dqa6YhP1y-37" value="" style="endArrow=open;endFill=1;endSize=12;html=1;rounded=0;entryX=0.043;entryY=0.673;entryDx=0;entryDy=0;entryPerimeter=0;" edge="1" parent="1" target="IkUtfVjGT32dqa6YhP1y-33">
          <mxGeometry width="160" relative="1" as="geometry">
            <mxPoint x="770" y="340" as="sourcePoint" />
            <mxPoint x="1057.5" y="320" as="targetPoint" />
          </mxGeometry>
        </mxCell>
        <mxCell id="IkUtfVjGT32dqa6YhP1y-38" value="" style="endArrow=open;endFill=1;endSize=12;html=1;rounded=0;" edge="1" parent="1" target="IkUtfVjGT32dqa6YhP1y-34">
          <mxGeometry width="160" relative="1" as="geometry">
            <mxPoint x="770" y="370" as="sourcePoint" />
            <mxPoint x="1050" y="319" as="targetPoint" />
          </mxGeometry>
        </mxCell>
        <mxCell id="IkUtfVjGT32dqa6YhP1y-39" value="" style="endArrow=open;endFill=1;endSize=12;html=1;rounded=0;entryX=-0.011;entryY=0.59;entryDx=0;entryDy=0;entryPerimeter=0;" edge="1" parent="1" target="IkUtfVjGT32dqa6YhP1y-35">
          <mxGeometry width="160" relative="1" as="geometry">
            <mxPoint x="780" y="390" as="sourcePoint" />
            <mxPoint x="1057.5" y="355" as="targetPoint" />
          </mxGeometry>
        </mxCell>
        <mxCell id="IkUtfVjGT32dqa6YhP1y-40" value="Admin&lt;div&gt;&lt;br&gt;&lt;/div&gt;" style="shape=umlActor;verticalLabelPosition=bottom;verticalAlign=top;html=1;" vertex="1" parent="1">
          <mxGeometry x="730" y="300" width="30" height="170" as="geometry" />
        </mxCell>
        <mxCell id="IkUtfVjGT32dqa6YhP1y-43" value="View List of deliveries" style="ellipse;whiteSpace=wrap;html=1;" vertex="1" parent="1">
          <mxGeometry x="1057.5" y="540" width="175" height="110" as="geometry" />
        </mxCell>
        <mxCell id="IkUtfVjGT32dqa6YhP1y-44" value="Create/Edit a delivery&amp;nbsp;" style="ellipse;whiteSpace=wrap;html=1;" vertex="1" parent="1">
          <mxGeometry x="1042.5" y="665" width="190" height="110" as="geometry" />
        </mxCell>
        <mxCell id="IkUtfVjGT32dqa6YhP1y-45" value="Delete delivery" style="ellipse;whiteSpace=wrap;html=1;" vertex="1" parent="1">
          <mxGeometry x="1042.5" y="820" width="190" height="100" as="geometry" />
        </mxCell>
        <mxCell id="IkUtfVjGT32dqa6YhP1y-46" value="" style="endArrow=open;endFill=1;endSize=12;html=1;rounded=0;entryX=0;entryY=0.5;entryDx=0;entryDy=0;" edge="1" parent="1" target="IkUtfVjGT32dqa6YhP1y-45">
          <mxGeometry width="160" relative="1" as="geometry">
            <mxPoint x="770" y="470" as="sourcePoint" />
            <mxPoint x="910" y="620" as="targetPoint" />
          </mxGeometry>
        </mxCell>
        <mxCell id="IkUtfVjGT32dqa6YhP1y-47" value="" style="endArrow=open;endFill=1;endSize=12;html=1;rounded=0;entryX=0.026;entryY=0.345;entryDx=0;entryDy=0;entryPerimeter=0;" edge="1" parent="1" target="IkUtfVjGT32dqa6YhP1y-44">
          <mxGeometry width="160" relative="1" as="geometry">
            <mxPoint x="780" y="430" as="sourcePoint" />
            <mxPoint x="1060" y="700" as="targetPoint" />
          </mxGeometry>
        </mxCell>
        <mxCell id="IkUtfVjGT32dqa6YhP1y-48" value="" style="endArrow=open;endFill=1;endSize=12;html=1;rounded=0;entryX=0.003;entryY=0.418;entryDx=0;entryDy=0;entryPerimeter=0;" edge="1" parent="1" target="IkUtfVjGT32dqa6YhP1y-43">
          <mxGeometry width="160" relative="1" as="geometry">
            <mxPoint x="790" y="410" as="sourcePoint" />
            <mxPoint x="1065.0000000000002" y="585.01" as="targetPoint" />
          </mxGeometry>
        </mxCell>
      </root>
    </mxGraphModel>
  </diagram>
</mxfile>
